<?xml version="1.0" encoding="UTF-8" standalone="no"?>
<!-- Created with Inkscape (http://www.inkscape.org/) -->

<svg
   width="130"
   height="100"
   viewBox="0 0 34.395833 26.458333"
   version="1.1"
   id="svg5"
   inkscape:version="1.2 (56b05e47e7, 2022-06-09, custom)"
   sodipodi:docname="remade-bird"
   xmlns:inkscape="http://www.inkscape.org/namespaces/inkscape"
   xmlns:sodipodi="http://sodipodi.sourceforge.net/DTD/sodipodi-0.dtd"
   xmlns="http://www.w3.org/2000/svg"
   xmlns:svg="http://www.w3.org/2000/svg">
  <sodipodi:namedview
     id="namedview7"
     pagecolor="#505050"
     bordercolor="#ffffff"
     borderopacity="1"
     inkscape:showpageshadow="false"
     inkscape:pageopacity="0"
     inkscape:pagecheckerboard="true"
     inkscape:deskcolor="#505050"
     inkscape:document-units="mm"
     showgrid="false"
     showborder="true"
     borderlayer="true"
     shape-rendering="auto"
     inkscape:zoom="2.8284271"
     inkscape:cx="66.644814"
     inkscape:cy="78.665629"
     inkscape:window-width="1848"
     inkscape:window-height="1016"
     inkscape:window-x="72"
     inkscape:window-y="27"
     inkscape:window-maximized="1"
     inkscape:current-layer="layer1" />
  <defs
     id="defs2">
    <inkscape:path-effect
       effect="bspline"
       id="path-effect5656"
       is_visible="true"
       lpeversion="1"
       weight="33.333333"
       steps="2"
       helper_size="0"
       apply_no_weight="true"
       apply_with_weight="true"
       only_selected="false" />
  </defs>
  <g
     inkscape:label="Calque 1"
     inkscape:groupmode="layer"
     id="layer1">
    <path
       id="circle3979"
       style="fill:#ffff00;stroke:none;stroke-width:1.6199;stroke-linecap:round;stroke-linejoin:round;stroke-dasharray:none;stroke-opacity:1;paint-order:stroke markers fill"
       d="M 97.306205 8.9612101 A 4.5832906 4.5832906 0 0 0 92.724056 13.522689 A 11.976875 11.976875 0 0 0 92.723022 13.544393 A 7.3935847 7.3935847 0 0 0 92.739559 14.031185 A 11.976875 11.976875 0 0 0 104.70007 25.52144 A 11.976875 11.976875 0 0 0 116.6766 13.544393 A 7.3935847 7.3935847 0 0 1 109.28325 20.938257 A 7.3935847 7.3935847 0 0 1 104.60964 19.269108 A 7.3935847 7.3935847 0 0 1 104.45616 19.139917 A 7.3935847 7.3935847 0 0 1 104.13059 18.841744 A 7.3935847 7.3935847 0 0 1 104.03758 18.753377 A 7.3935847 7.3935847 0 0 1 103.67688 18.359603 A 7.3935847 7.3935847 0 0 1 103.54872 18.204574 A 7.3935847 7.3935847 0 0 1 103.30429 17.886764 A 7.3935847 7.3935847 0 0 1 103.203 17.747754 A 7.3935847 7.3935847 0 0 1 102.91206 17.290934 A 7.3935847 7.3935847 0 0 1 102.83248 17.148824 A 7.3935847 7.3935847 0 0 1 102.63456 16.769519 A 7.3935847 7.3935847 0 0 1 102.56015 16.61604 A 7.3935847 7.3935847 0 0 1 102.35034 16.108061 A 7.3935847 7.3935847 0 0 1 102.30745 15.98197 A 7.3935847 7.3935847 0 0 1 102.17361 15.559257 A 7.3935847 7.3935847 0 0 1 102.12607 15.388208 A 7.3935847 7.3935847 0 0 1 102.00773 14.853357 A 7.3935847 7.3935847 0 0 1 101.99067 14.740186 A 7.3935847 7.3935847 0 0 1 101.9297 14.280265 A 7.3935847 7.3935847 0 0 1 101.91419 14.110767 A 7.3935847 7.3935847 0 0 1 101.8899 13.544393 A 4.5832906 4.5832906 0 0 0 101.8899 13.543359 A 4.5832906 4.5832906 0 0 0 97.306205 8.9612101 z " />
    <path
       id="path5468"
       style="fill:#ffff00;stroke:none;stroke-width:1.6199;stroke-linecap:round;stroke-linejoin:round;stroke-dasharray:none;stroke-opacity:1;paint-order:stroke markers fill"
       d="m 73.654237,-28.806057 a 4.5832906,4.5832906 0 0 1 4.582149,4.561479 11.976875,11.976875 0 0 1 0.001,0.0217 7.3935847,7.3935847 0 0 1 -0.01654,0.486792 11.976875,11.976875 0 0 1 -11.960511,11.490255 11.976875,11.976875 0 0 1 -11.97653,-11.977047 7.3935847,7.3935847 0 0 0 7.39335,7.393864 7.3935847,7.3935847 0 0 0 4.67361,-1.669149 7.3935847,7.3935847 0 0 0 0.15348,-0.129191 7.3935847,7.3935847 0 0 0 0.32557,-0.298173 7.3935847,7.3935847 0 0 0 0.09301,-0.08837 7.3935847,7.3935847 0 0 0 0.3607,-0.393774 7.3935847,7.3935847 0 0 0 0.12816,-0.155029 7.3935847,7.3935847 0 0 0 0.24443,-0.31781 7.3935847,7.3935847 0 0 0 0.10129,-0.13901 7.3935847,7.3935847 0 0 0 0.29094,-0.45682 7.3935847,7.3935847 0 0 0 0.07958,-0.14211 7.3935847,7.3935847 0 0 0 0.19792,-0.379305 7.3935847,7.3935847 0 0 0 0.07441,-0.153479 7.3935847,7.3935847 0 0 0 0.20981,-0.507979 7.3935847,7.3935847 0 0 0 0.04289,-0.126091 7.3935847,7.3935847 0 0 0 0.13384,-0.422713 7.3935847,7.3935847 0 0 0 0.04754,-0.171049 7.3935847,7.3935847 0 0 0 0.11834,-0.534851 7.3935847,7.3935847 0 0 0 0.01706,-0.113171 7.3935847,7.3935847 0 0 0 0.06097,-0.459921 7.3935847,7.3935847 0 0 0 0.01551,-0.169498 7.3935847,7.3935847 0 0 0 0.02429,-0.566374 4.5832906,4.5832906 0 0 1 0,-10e-4 4.5832906,4.5832906 0 0 1 4.583695,-4.582149 z" />
    <path
       id="path5475"
       style="fill:#ffff00;stroke:none;stroke-width:1.6199;stroke-linecap:round;stroke-linejoin:round;stroke-dasharray:none;stroke-opacity:1;paint-order:stroke markers fill"
       d="m 43.460703,-30.21114 a 7.3935847,7.3935847 0 0 0 -7.393348,7.393347 4.5832906,4.5832906 0 0 1 -0.02325,0.444417 4.5832906,4.5832906 0 0 1 -0.0186,0.137976 4.5832906,4.5832906 0 0 1 -0.04754,0.302824 4.5832906,4.5832906 0 0 1 -0.03566,0.15968 4.5832906,4.5832906 0 0 1 -0.0739,0.276986 4.5832906,4.5832906 0 0 1 -0.05064,0.160714 4.5832906,4.5832906 0 0 1 -0.109037,0.28267 4.5832906,4.5832906 0 0 1 -0.05323,0.129191 4.5832906,4.5832906 0 0 1 -0.444417,0.769979 4.5832906,4.5832906 0 0 1 -0.08423,0.109554 4.5832906,4.5832906 0 0 1 -0.19482,0.240812 4.5832906,4.5832906 0 0 1 -0.109554,0.119373 4.5832906,4.5832906 0 0 1 -0.204122,0.204121 4.5832906,4.5832906 0 0 1 -0.119372,0.109554 4.5832906,4.5832906 0 0 1 -0.240813,0.194821 4.5832906,4.5832906 0 0 1 -0.109554,0.08423 4.5832906,4.5832906 0 0 1 -0.769978,0.444418 4.5832906,4.5832906 0 0 1 -0.129191,0.05323 4.5832906,4.5832906 0 0 1 -0.282671,0.109038 4.5832906,4.5832906 0 0 1 -0.160713,0.05064 4.5832906,4.5832906 0 0 1 -0.276986,0.0739 4.5832906,4.5832906 0 0 1 -0.15968,0.03566 4.5832906,4.5832906 0 0 1 -0.302824,0.04754 4.5832906,4.5832906 0 0 1 -0.137976,0.0186 4.5832906,4.5832906 0 0 1 -0.444417,0.02326 4.5832906,4.5832906 0 0 1 -0.444418,-0.02326 4.5832906,4.5832906 0 0 1 -0.137976,-0.0186 4.5832906,4.5832906 0 0 1 -0.303347,-0.04755 4.5832906,4.5832906 0 0 1 -0.157613,-0.03514 4.5832906,4.5832906 0 0 1 -0.282154,-0.07545 4.5832906,4.5832906 0 0 1 -0.155029,-0.04909 4.5832906,4.5832906 0 0 1 -0.286804,-0.110071 4.5832906,4.5832906 0 0 1 -0.127641,-0.05271 4.5832906,4.5832906 0 0 1 -0.766878,-0.442351 4.5832906,4.5832906 0 0 1 -0.121957,-0.09353 4.5832906,4.5832906 0 0 1 -0.228926,-0.185518 4.5832906,4.5832906 0 0 1 -0.12144,-0.110588 4.5832906,4.5832906 0 0 1 -0.203605,-0.204122 4.5832906,4.5832906 0 0 1 -0.113171,-0.12299 4.5832906,4.5832906 0 0 1 -0.190686,-0.236161 4.5832906,4.5832906 0 0 1 -0.08578,-0.111621 4.5832906,4.5832906 0 0 1 -0.443384,-0.767395 4.5832906,4.5832906 0 0 1 -0.05529,-0.133842 4.5832906,4.5832906 0 0 1 -0.108521,-0.28267 4.5832906,4.5832906 0 0 1 -0.04909,-0.15503 4.5832906,4.5832906 0 0 1 -0.07545,-0.282153 4.5832906,4.5832906 0 0 1 -0.03514,-0.157613 4.5832906,4.5832906 0 0 1 -0.04754,-0.303341 4.5832906,4.5832906 0 0 1 -0.0186,-0.137976 4.5832906,4.5832906 0 0 1 -0.02325,-0.444417 7.3935847,7.3935847 0 0 0 0.01705,0.506946 11.976875,11.976875 0 0 0 11.959994,11.470101 11.976875,11.976875 0 0 0 11.977046,-11.977047 7.3935847,7.3935847 0 0 0 -7.393863,-7.393347 z" />
    <g
       id="g5962"
       transform="translate(-2.2724479)">
      <path
         id="circle1679"
         style="fill:#ffff00;stroke:none;stroke-width:1.6199;stroke-linecap:round;stroke-linejoin:round;stroke-dasharray:none;stroke-opacity:1;paint-order:stroke markers fill"
         d="m 22.776388,3.5439697 a 7.3935847,7.3935847 0 0 0 -7.393348,7.3933473 4.5832906,4.5832906 0 0 1 -0.02325,0.444417 4.5832906,4.5832906 0 0 1 -0.0186,0.137976 4.5832906,4.5832906 0 0 1 -0.04754,0.302824 4.5832906,4.5832906 0 0 1 -0.03566,0.15968 4.5832906,4.5832906 0 0 1 -0.0739,0.276986 4.5832906,4.5832906 0 0 1 -0.05064,0.160714 4.5832906,4.5832906 0 0 1 -0.109037,0.28267 4.5832906,4.5832906 0 0 1 -0.05323,0.129191 4.5832906,4.5832906 0 0 1 -0.444417,0.769979 4.5832906,4.5832906 0 0 1 -0.08423,0.109554 4.5832906,4.5832906 0 0 1 -0.19482,0.240812 4.5832906,4.5832906 0 0 1 -0.109554,0.119373 4.5832906,4.5832906 0 0 1 -0.204122,0.204121 4.5832906,4.5832906 0 0 1 -0.119372,0.109554 4.5832906,4.5832906 0 0 1 -0.240813,0.194821 4.5832906,4.5832906 0 0 1 -0.109554,0.08423 4.5832906,4.5832906 0 0 1 -0.769978,0.444418 4.5832906,4.5832906 0 0 1 -0.129191,0.05323 4.5832906,4.5832906 0 0 1 -0.282671,0.109038 4.5832906,4.5832906 0 0 1 -0.160713,0.05064 4.5832906,4.5832906 0 0 1 -0.276986,0.0739 4.5832906,4.5832906 0 0 1 -0.15968,0.03566 4.5832906,4.5832906 0 0 1 -0.302824,0.04754 4.5832906,4.5832906 0 0 1 -0.137976,0.0186 4.5832906,4.5832906 0 0 1 -0.444417,0.02326 4.5832906,4.5832906 0 0 1 -0.169499,-0.0088 A 6.5383695,6.5383695 0 0 1 7.7483643,9.0981527 10.591511,10.591511 0 0 0 8.5508993,14.926737 4.5832906,4.5832906 0 0 1 8.1380046,14.666288 4.5832906,4.5832906 0 0 1 8.0160482,14.572754 4.5832906,4.5832906 0 0 1 7.7871216,14.387236 4.5832906,4.5832906 0 0 1 7.665682,14.276648 4.5832906,4.5832906 0 0 1 7.4620768,14.072526 4.5832906,4.5832906 0 0 1 7.3489054,13.949536 4.5832906,4.5832906 0 0 1 7.1582194,13.713375 4.5832906,4.5832906 0 0 1 7.0724365,13.601754 4.5832906,4.5832906 0 0 1 6.6290527,12.834359 4.5832906,4.5832906 0 0 1 6.573759,12.700517 4.5832906,4.5832906 0 0 1 6.4652384,12.417847 4.5832906,4.5832906 0 0 1 6.4161458,12.262817 4.5832906,4.5832906 0 0 1 6.3406982,11.980664 4.5832906,4.5832906 0 0 1 6.3055583,11.823051 4.5832906,4.5832906 0 0 1 6.258016,11.51971 4.5832906,4.5832906 0 0 1 6.2394124,11.381734 4.5832906,4.5832906 0 0 1 6.216158,10.937317 7.3935847,7.3935847 0 0 0 6.2332113,11.444263 11.976875,11.976875 0 0 0 18.193205,22.914364 11.976875,11.976875 0 0 0 30.170251,10.937317 7.3935847,7.3935847 0 0 0 22.776388,3.5439697 Z" />
      <path
         id="path5484"
         style="fill:#ff0000;stroke:none;stroke-width:0.948552;stroke-linecap:round;stroke-linejoin:round;stroke-dasharray:none;stroke-opacity:1;paint-order:stroke markers fill"
         d="m 21.150196,9.8245495 a 4.3294006,4.3294006 0 0 0 -5.707145,2.2166435 2.6837998,2.6837998 0 0 1 -0.117362,0.232664 2.6837998,2.6837998 0 0 1 -0.04254,0.06954 2.6837998,2.6837998 0 0 1 -0.09696,0.151052 2.6837998,2.6837998 0 0 1 -0.0568,0.07715 2.6837998,2.6837998 0 0 1 -0.104983,0.130985 2.6837998,2.6837998 0 0 1 -0.06507,0.07417 2.6837998,2.6837998 0 0 1 -0.125158,0.125736 2.6837998,2.6837998 0 0 1 -0.05902,0.05666 2.6837998,2.6837998 0 0 1 -0.41991,0.307703 2.6837998,2.6837998 0 0 1 -0.071,0.03882 2.6837998,2.6837998 0 0 1 -0.161244,0.08306 2.6837998,2.6837998 0 0 1 -0.08689,0.03811 2.6837998,2.6837998 0 0 1 -0.157568,0.0612 2.6837998,2.6837998 0 0 1 -0.08983,0.03053 2.6837998,2.6837998 0 0 1 -0.175034,0.04755 2.6837998,2.6837998 0 0 1 -0.07859,0.01927 2.6837998,2.6837998 0 0 1 -0.517518,0.05639 2.6837998,2.6837998 0 0 1 -0.0818,-0.002 2.6837998,2.6837998 0 0 1 -0.177215,-0.0083 2.6837998,2.6837998 0 0 1 -0.09808,-0.0108 2.6837998,2.6837998 0 0 1 -0.165873,-0.02579 2.6837998,2.6837998 0 0 1 -0.09398,-0.01858 2.6837998,2.6837998 0 0 1 -0.173498,-0.04601 2.6837998,2.6837998 0 0 1 -0.07832,-0.0226 2.6837998,2.6837998 0 0 1 -0.243641,-0.09244 2.6837998,2.6837998 0 0 1 -0.232662,-0.117373 2.6837998,2.6837998 0 0 1 -0.06954,-0.04253 2.6837998,2.6837998 0 0 1 -0.151333,-0.09708 2.6837998,2.6837998 0 0 1 -0.07616,-0.05604 2.6837998,2.6837998 0 0 1 -0.133388,-0.107035 2.6837998,2.6837998 0 0 1 -0.07149,-0.06291 2.6837998,2.6837998 0 0 1 -0.127709,-0.126684 2.6837998,2.6837998 0 0 1 -0.05596,-0.05837 2.6837998,2.6837998 0 0 1 -0.306529,-0.418071 2.6837998,2.6837998 0 0 1 -0.04327,-0.07891 2.6837998,2.6837998 0 0 1 -0.07888,-0.153454 2.6837998,2.6837998 0 0 1 -0.03897,-0.08793 2.6837998,2.6837998 0 0 1 -0.06092,-0.157446 2.6837998,2.6837998 0 0 1 -0.03161,-0.09262 2.6837998,2.6837998 0 0 1 -0.04644,-0.171566 2.6837998,2.6837998 0 0 1 -0.01962,-0.08006 2.6837998,2.6837998 0 0 1 -0.05645,-0.515889 2.6837998,2.6837998 0 0 1 0.002,-0.08477 2.6837998,2.6837998 0 0 1 0.0086,-0.17709 2.6837998,2.6837998 0 0 1 0.01029,-0.09467 2.6837998,2.6837998 0 0 1 0.02617,-0.169008 2.6837998,2.6837998 0 0 1 0.01837,-0.09276 2.6837998,2.6837998 0 0 1 0.04613,-0.173776 2.6837998,2.6837998 0 0 1 0.0226,-0.07832 2.6837998,2.6837998 0 0 1 0.09245,-0.2436376 4.3294006,4.3294006 0 0 0 -0.110517,0.2756896 7.0132002,7.0132002 0 0 0 3.70144,8.969755 7.0132002,7.0132002 0 0 0 9.245438,-3.59091 4.3294006,4.3294006 0 0 0 -2.216919,-5.707266 z" />
      <path
         id="path5486"
         style="fill:#ff0000;stroke:none;stroke-width:0.399531;stroke-linecap:round;stroke-linejoin:round;stroke-dasharray:none;stroke-opacity:1;paint-order:stroke markers fill"
         d="m 27.983843,13.062845 a 1.8235494,1.8235494 0 0 0 2.418052,-0.896248 1.1304201,1.1304201 0 0 1 0.05095,-0.09722 1.1304201,1.1304201 0 0 1 0.01837,-0.02901 1.1304201,1.1304201 0 0 1 0.04182,-0.06298 1.1304201,1.1304201 0 0 1 0.02443,-0.03212 1.1304201,1.1304201 0 0 1 0.04507,-0.05448 1.1304201,1.1304201 0 0 1 0.02789,-0.03081 1.1304201,1.1304201 0 0 1 0.05353,-0.05214 1.1304201,1.1304201 0 0 1 0.02523,-0.02348 1.1304201,1.1304201 0 0 1 0.178856,-0.126845 1.1304201,1.1304201 0 0 1 0.03015,-0.01588 1.1304201,1.1304201 0 0 1 0.06845,-0.03393 1.1304201,1.1304201 0 0 1 0.03684,-0.01548 1.1304201,1.1304201 0 0 1 0.06676,-0.02475 1.1304201,1.1304201 0 0 1 0.03803,-0.01227 1.1304201,1.1304201 0 0 1 0.07403,-0.01888 1.1304201,1.1304201 0 0 1 0.03323,-0.0076 1.1304201,1.1304201 0 0 1 0.218321,-0.02036 1.1304201,1.1304201 0 0 1 0.03444,0.0014 1.1304201,1.1304201 0 0 1 0.07458,0.0047 1.1304201,1.1304201 0 0 1 0.04124,0.0052 1.1304201,1.1304201 0 0 1 0.06969,0.01194 1.1304201,1.1304201 0 0 1 0.03946,0.0084 1.1304201,1.1304201 0 0 1 0.07277,0.02051 1.1304201,1.1304201 0 0 1 0.03284,0.01003 1.1304201,1.1304201 0 0 1 0.102006,0.04052 1.1304201,1.1304201 0 0 1 0.09722,0.05095 1.1304201,1.1304201 0 0 1 0.02901,0.01836 1.1304201,1.1304201 0 0 1 0.0631,0.04188 1.1304201,1.1304201 0 0 1 0.03171,0.0241 1.1304201,1.1304201 0 0 1 0.05548,0.04595 1.1304201,1.1304201 0 0 1 0.0297,0.02696 1.1304201,1.1304201 0 0 1 0.05296,0.05419 1.1304201,1.1304201 0 0 1 0.02319,0.02495 1.1304201,1.1304201 0 0 1 0.126363,0.178073 1.1304201,1.1304201 0 0 1 0.01771,0.03351 1.1304201,1.1304201 0 0 1 0.03222,0.06514 1.1304201,1.1304201 0 0 1 0.01584,0.03729 1.1304201,1.1304201 0 0 1 0.02463,0.06671 1.1304201,1.1304201 0 0 1 0.01271,0.03921 1.1304201,1.1304201 0 0 1 0.01844,0.07256 1.1304201,1.1304201 0 0 1 0.0077,0.03385 1.1304201,1.1304201 0 0 1 0.0204,0.217636 1.1304201,1.1304201 0 0 1 -0.0014,0.03569 1.1304201,1.1304201 0 0 1 -0.0048,0.07453 1.1304201,1.1304201 0 0 1 -0.005,0.0398 1.1304201,1.1304201 0 0 1 -0.01213,0.07101 1.1304201,1.1304201 0 0 1 -0.0083,0.03894 1.1304201,1.1304201 0 0 1 -0.02056,0.07288 1.1304201,1.1304201 0 0 1 -0.01003,0.03284 1.1304201,1.1304201 0 0 1 -0.04053,0.102004 1.8235494,1.8235494 0 0 0 0.04835,-0.115385 2.9539694,2.9539694 0 0 0 -1.500254,-3.8018036 2.9539694,2.9539694 0 0 0 -3.917186,1.4519016 1.8235494,1.8235494 0 0 0 0.896364,2.418105 z" />
      <circle
         style="fill:#000000;stroke:none;stroke-width:1;stroke-linecap:round;stroke-linejoin:round;stroke-dasharray:none;stroke-opacity:1;paint-order:stroke markers fill"
         id="path5544"
         cx="25.559668"
         cy="7.4598341"
         r="1.1330477" />
    </g>
  </g>
</svg>
